<svg width="42" height="48" viewBox="0 0 42 48" fill="none" xmlns="http://www.w3.org/2000/svg">
<path d="M39.2291 20.1232L7.22682 0.615235C4.62663 -0.96801 0.643616 0.568366 0.643616 4.48852V43.496C0.643616 47.0112 4.34298 49.1287 7.22682 47.3674L39.2291 27.8697C42.0839 26.1318 42.093 21.8574 39.2291 20.1232ZM29.9085 26.5762L10.8516 38.1857C8.91694 39.3715 6.46222 37.926 6.46222 35.6032V12.3748C6.46222 10.0519 8.91694 8.61021 10.8516 9.79319L29.9085 21.4121C30.3437 21.6774 30.7043 22.0551 30.9548 22.5078C31.2053 22.9606 31.337 23.4729 31.337 23.9941C31.337 24.5154 31.2053 25.0276 30.9548 25.4804C30.7043 25.9332 30.3437 26.3108 29.9085 26.5762Z" fill="white" fill-opacity="0.5"/>
<path d="M10.8516 9.7952L29.9084 21.4122C30.3436 21.6775 30.7042 22.0552 30.9547 22.508C31.2052 22.9607 31.3369 23.473 31.3369 23.9943C31.3369 24.5155 31.2052 25.0278 30.9547 25.4806C30.7042 25.9333 30.3436 26.311 29.9084 26.5763L10.8516 38.1858C8.91688 39.3716 6.46216 37.9262 6.46216 35.6033V12.3749C6.46216 10.0539 8.91688 8.61222 10.8516 9.7952Z" fill="white"/>
</svg>
