<svg width="96" height="58" viewBox="0 0 96 58" fill="none" xmlns="http://www.w3.org/2000/svg">
<path d="M50.3634 40.2634C48.663 44.2082 48.357 44.8883 48.357 44.8883C48.357 44.8883 52.0637 52.0296 56.6205 52.3357C55.7024 50.7714 55.1583 51.2135 50.3634 40.2634Z" fill="#D9D9D9"/>
<path d="M50.3634 40.2634C48.663 44.2082 48.357 44.8883 48.357 44.8883C48.357 44.8883 52.0637 52.0296 56.6205 52.3357C55.7024 50.7714 55.1583 51.2135 50.3634 40.2634Z" fill="url(#paint0_linear_222_2)"/>
<path d="M38.2231 22.6482C43.6301 23.0903 47.4728 33.4282 47.4728 33.4282L45.3984 38.6992L38.2231 22.6482Z" fill="#D9D9D9"/>
<path d="M38.2231 22.6482C43.6301 23.0903 47.4728 33.4282 47.4728 33.4282L45.3984 38.6992L38.2231 22.6482Z" fill="url(#paint1_linear_222_2)"/>
<path d="M11.4752 6.44089C11.4752 6.44089 8.51668 4.80859 5.08204 6.67894C5.08204 6.67894 3.00766 7.66512 1.64741 10.4876C1.64741 10.4876 -2.05926 16.6768 1.64741 24.7363L8.27866 40.2772L9.12882 42.1475L9.77494 43.5078L10.5231 45.1061L11.1692 46.4323L11.5093 47.1465L12.0534 48.2006L12.5975 49.1868L13.0395 50.037C13.0395 50.037 13.7877 51.3292 13.9577 51.5333C14.1277 51.7373 17.1883 53.3356 20.3509 51.4653C20.3509 51.4653 23.5031 50.279 26.6943 43.7104L17.3583 22.8319L12.1894 11.0998C10.8631 8.03919 11.4752 6.44089 11.4752 6.44089Z" fill="url(#paint2_linear_222_2)"/>
<path d="M3.06058 8.23815C3.06058 8.23815 8.22954 2.66111 14.0106 8.23815C14.0106 8.23815 16.255 10.3805 18.2954 15.1074L23.0563 26.0575L27.5451 36.4294L31.8979 46.0532L33.2922 48.8417C33.2922 48.8417 39.2433 62.3762 53.628 55.643C56.7906 54.1626 57.4521 53.3042 59.5791 51.6302C53.628 54.4527 48.8331 45.8151 48.8331 45.8151L48.187 44.6589L46.7247 41.7344L43.3921 34.287L38.1551 22.4188C38.1551 22.4188 34.6184 14.6653 32.8841 10.3125C30.6707 6.06552 28.1238 3.46039 25.4707 2.00493C22.4973 0.373699 19.6776 -0.138432 17.1052 0.0307014C7.4814 0.663447 3.06058 8.23815 3.06058 8.23815Z" fill="url(#paint3_linear_222_2)"/>
<path d="M36.4548 18.6685C49.6832 7.17435 58.4909 21.219 58.4909 21.219C59.3 22.3484 60.3612 24.2795 66.7544 39.2423C70.3776 47.9412 73.2496 50.8692 76.2082 52.1647C79.313 53.2189 80.833 51.9947 80.833 51.9947C65.2241 65.2231 56.5865 52.4708 56.5865 52.4708C50.2613 42.3369 49.4112 37.0999 46.5887 31.4549C42.984 23.0893 38.2571 22.6812 38.2571 22.6812C38.2571 22.6812 37.3049 20.3008 36.4548 18.6685Z" fill="#D9D9D9"/>
<path d="M36.4548 18.6685C49.6832 7.17435 58.4909 21.219 58.4909 21.219C59.3 22.3484 60.3612 24.2795 66.7544 39.2423C70.3776 47.9412 73.2496 50.8692 76.2082 52.1647C79.313 53.2189 80.833 51.9947 80.833 51.9947C65.2241 65.2231 56.5865 52.4708 56.5865 52.4708C50.2613 42.3369 49.4112 37.0999 46.5887 31.4549C42.984 23.0893 38.2571 22.6812 38.2571 22.6812C38.2571 22.6812 37.3049 20.3008 36.4548 18.6685Z" fill="url(#paint4_linear_222_2)"/>
<path d="M14.0106 51.5536C14.0106 51.5536 20.8119 55.9064 26.729 43.5621C27.5791 41.8618 27.8172 41.1477 28.7693 39.1753C34.4824 52.3357 37.1689 54.1381 37.1689 54.1381C37.1689 54.1381 33.3602 58.4909 25.6067 57.9516C23.1836 57.8397 20.5431 57.1287 17.8533 55.393C16.4834 54.509 15.1827 53.1659 14.0106 51.5536Z" fill="#D9D9D9"/>
<path d="M14.0106 51.5536C14.0106 51.5536 20.8119 55.9064 26.729 43.5621C27.5791 41.8618 27.8172 41.1477 28.7693 39.1753C34.4824 52.3357 37.1689 54.1381 37.1689 54.1381C37.1689 54.1381 33.3602 58.4909 25.6067 57.9516C23.1836 57.8397 20.5431 57.1287 17.8533 55.393C16.4834 54.509 15.1827 53.1659 14.0106 51.5536Z" fill="url(#paint5_linear_222_2)"/>
<path d="M58.4909 21.2604L63.2517 10.6505L63.8639 9.35822C63.8639 9.35822 64.0852 8.91937 64.2379 8.64408C72.7735 -6.28469 89.7767 3.06705 89.9467 4.22327C84.3357 2.31892 81.7172 6.5357 81.7172 6.5357L80.595 8.27002L80.1189 9.15418L79.5068 10.4124L77.4664 15.3433L74.2018 23.1648L71.4473 29.83L68.7948 36.2232L67.1965 40.168L64.3399 33.8428L62.1975 28.9799C62.1975 28.9799 61.7344 27.8135 61.4154 27.0755C60.2932 23.9129 58.4909 21.2604 58.4909 21.2604Z" fill="#D9D9D9"/>
<path d="M58.4909 21.2604L63.2517 10.6505L63.8639 9.35822C63.8639 9.35822 64.0852 8.91937 64.2379 8.64408C72.7735 -6.28469 89.7767 3.06705 89.9467 4.22327C84.3357 2.31892 81.7172 6.5357 81.7172 6.5357L80.595 8.27002L80.1189 9.15418L79.5068 10.4124L77.4664 15.3433L74.2018 23.1648L71.4473 29.83L68.7948 36.2232L67.1965 40.168L64.3399 33.8428L62.1975 28.9799C62.1975 28.9799 61.7344 27.8135 61.4154 27.0755C60.2932 23.9129 58.4909 21.2604 58.4909 21.2604Z" fill="url(#paint6_linear_222_2)"/>
<path d="M82.1592 5.9152C84.9818 2.20851 89.9127 4.21488 89.9127 4.21488C89.9127 4.21488 98.3122 10.404 94.6396 22.7143C92.6672 27.9173 90.1167 34.4805 90.1167 34.4805L87.2942 41.4858L85.4579 45.2265L83.8596 48.015L82.2273 50.3615L80.833 51.9257C80.833 51.9257 78.1125 53.422 75.528 51.9257C73.6237 51.1773 71.9573 48.8992 71.9573 48.8992C70.155 46.8248 69.0328 44.3763 69.0328 44.3763L75.1199 30.0597L78.7586 21.252L80.765 16.1851L82.0232 12.8865C82.0232 12.8865 83.3495 8.49968 82.1592 5.9152Z" fill="url(#paint7_linear_222_2)"/>
<path d="M82.1592 5.9152C84.9818 2.20851 89.9127 4.21488 89.9127 4.21488C89.9127 4.21488 98.3122 10.404 94.6396 22.7143C92.6672 27.9173 90.1167 34.4805 90.1167 34.4805L87.2942 41.4858L85.4579 45.2265L83.8596 48.015L82.2273 50.3615L80.833 51.9257C80.833 51.9257 78.1125 53.422 75.528 51.9257C73.6237 51.1773 71.9573 48.8992 71.9573 48.8992C70.155 46.8248 69.0328 44.3763 69.0328 44.3763L75.1199 30.0597L78.7586 21.252L80.765 16.1851L82.0232 12.8865C82.0232 12.8865 83.3495 8.49968 82.1592 5.9152Z" fill="url(#paint8_linear_222_2)"/>
<defs>
<linearGradient id="paint0_linear_222_2" x1="50.8878" y1="39.0002" x2="60.724" y2="53.1745" gradientUnits="userSpaceOnUse">
<stop offset="0.0817789" stop-color="#0068B3"/>
<stop offset="0.186646" stop-color="#E4F6FF" stop-opacity="0.56"/>
<stop offset="0.447813" stop-color="#1782FF" stop-opacity="0.69"/>
<stop offset="0.568807" stop-color="#575EFF"/>
<stop offset="0.890693" stop-color="#030003"/>
</linearGradient>
<linearGradient id="paint1_linear_222_2" x1="47.4793" y1="42.8962" x2="31.6798" y2="27.9464" gradientUnits="userSpaceOnUse">
<stop offset="0.0817789" stop-color="#0068B3"/>
<stop offset="0.186646" stop-color="#E4F6FF" stop-opacity="0.56"/>
<stop offset="0.447813" stop-color="#1782FF" stop-opacity="0.69"/>
<stop offset="0.568807" stop-color="#575EFF"/>
<stop offset="0.890693" stop-color="#030003"/>
</linearGradient>
<linearGradient id="paint2_linear_222_2" x1="26.729" y1="64.544" x2="-19.1106" y2="21.3864" gradientUnits="userSpaceOnUse">
<stop offset="0.0817789" stop-color="#0068B3"/>
<stop offset="0.186646" stop-color="#E4F6FF" stop-opacity="0.56"/>
<stop offset="0.447813" stop-color="#1782FF" stop-opacity="0.69"/>
<stop offset="0.568807" stop-color="#575EFF"/>
<stop offset="0.890693" stop-color="#030003"/>
</linearGradient>
<linearGradient id="paint3_linear_222_2" x1="20.3698" y1="-6.01912" x2="59.5791" y2="75.086" gradientUnits="userSpaceOnUse">
<stop offset="0.0817789" stop-color="#0068B3"/>
<stop offset="0.186646" stop-color="#E4F6FF" stop-opacity="0.56"/>
<stop offset="0.447813" stop-color="#1782FF" stop-opacity="0.69"/>
<stop offset="0.568807" stop-color="#575EFF"/>
<stop offset="0.890693" stop-color="#030003"/>
</linearGradient>
<linearGradient id="paint4_linear_222_2" x1="50.0459" y1="9.55771" x2="79.3884" y2="72.0692" gradientUnits="userSpaceOnUse">
<stop offset="0.0817789" stop-color="#0068B3"/>
<stop offset="0.186646" stop-color="#E4F6FF" stop-opacity="0.56"/>
<stop offset="0.447813" stop-color="#1782FF" stop-opacity="0.69"/>
<stop offset="0.568807" stop-color="#575EFF"/>
<stop offset="0.890693" stop-color="#030003"/>
</linearGradient>
<linearGradient id="paint5_linear_222_2" x1="21.103" y1="37.2057" x2="32.1044" y2="65.7009" gradientUnits="userSpaceOnUse">
<stop offset="0.0817789" stop-color="#0068B3"/>
<stop offset="0.186646" stop-color="#E4F6FF" stop-opacity="0.56"/>
<stop offset="0.447813" stop-color="#1782FF" stop-opacity="0.69"/>
<stop offset="0.568807" stop-color="#575EFF"/>
<stop offset="0.890693" stop-color="#030003"/>
</linearGradient>
<linearGradient id="paint6_linear_222_2" x1="68.1244" y1="-3.90268" x2="98.8011" y2="47.0161" gradientUnits="userSpaceOnUse">
<stop offset="0.0817789" stop-color="#0068B3"/>
<stop offset="0.186646" stop-color="#E4F6FF" stop-opacity="0.56"/>
<stop offset="0.447813" stop-color="#1782FF" stop-opacity="0.69"/>
<stop offset="0.568807" stop-color="#575EFF"/>
<stop offset="0.890693" stop-color="#030003"/>
</linearGradient>
<linearGradient id="paint7_linear_222_2" x1="82.3008" y1="3.67273" x2="82.3008" y2="52.5908" gradientUnits="userSpaceOnUse">
<stop stop-color="#D0D500"/>
<stop offset="1" stop-color="#EFFF8F" stop-opacity="0"/>
</linearGradient>
<linearGradient id="paint8_linear_222_2" x1="95.5875" y1="65.382" x2="47.6834" y2="22.7139" gradientUnits="userSpaceOnUse">
<stop offset="0.0817789" stop-color="#0068B3"/>
<stop offset="0.186646" stop-color="#E4F6FF" stop-opacity="0.56"/>
<stop offset="0.447813" stop-color="#1782FF" stop-opacity="0.69"/>
<stop offset="0.568807" stop-color="#575EFF"/>
<stop offset="0.890693" stop-color="#030003"/>
</linearGradient>
</defs>
</svg>
